HIERARCHY
ROOT Root
{
  OFFSET 0.0 0.0 0.0
  CHANNELS 6 Xposition Yposition Zposition Zrotation Yrotation Xrotation
  JOINT Hips
  {
    OFFSET 0.0 100.0 0.0
    CHANNELS 6 Xposition Yposition Zposition Zrotation Yrotation Xrotation
    JOINT Spine1
    {
      OFFSET -0.013727 5.003763 -0.053727
      CHANNELS 3 Zrotation Yrotation Xrotation
      JOINT Spine2
      {
        OFFSET -0.0 7.125301 -0.029825
        CHANNELS 3 Zrotation Yrotation Xrotation
        JOINT Chest
        {
          OFFSET -1e-06 7.550063 -0.815971
          CHANNELS 3 Zrotation Yrotation Xrotation
          JOINT Neck1
          {
            OFFSET -0.181677 26.311295 -0.553348
            CHANNELS 3 Zrotation Yrotation Xrotation
            JOINT Neck2
            {
              OFFSET -3e-06 7.709397 2.302585
              CHANNELS 3 Zrotation Yrotation Xrotation
              JOINT Head
              {
                OFFSET -5e-06 6.128916 1.953709
                CHANNELS 3 Zrotation Yrotation Xrotation
                JOINT HeadEnd
                {
                  OFFSET 0.003598 16.065403 -1.835379
                  CHANNELS 3 Zrotation Yrotation Xrotation
                }
                JOINT Jaw
                {
                  OFFSET 0.002637 0.475592 3.094941
                  CHANNELS 3 Zrotation Yrotation Xrotation
                }
                JOINT LeftEye
                {
                  OFFSET 3.206381 5.380205 7.586883
                  CHANNELS 3 Zrotation Yrotation Xrotation
                }
                JOINT RightEye
                {
                  OFFSET -3.22244 5.361869 7.558234
                  CHANNELS 3 Zrotation Yrotation Xrotation
                }
              }
            }
          }
          JOINT LeftShoulder
          {
            OFFSET 1.621652 23.237164 5.113413
            CHANNELS 3 Zrotation Yrotation Xrotation
            JOINT LeftArm
            {
              OFFSET 14.919846 2e-06 -5.502326
              CHANNELS 3 Zrotation Yrotation Xrotation
              JOINT LeftForeArm
              {
                OFFSET 28.739307 0.0 -0.002588
                CHANNELS 3 Zrotation Yrotation Xrotation
                JOINT LeftHand
                {
                  OFFSET 27.093981 -1e-06 0.002609
                  CHANNELS 3 Zrotation Yrotation Xrotation
                  JOINT LeftHandThumb1
                  {
                    OFFSET 2.276482 -1.392045 3.191413
                    CHANNELS 3 Zrotation Yrotation Xrotation
                    JOINT LeftHandThumb2
                    {
                      OFFSET 4.012836 -1.828127 1.641654
                      CHANNELS 3 Zrotation Yrotation Xrotation
                      JOINT LeftHandThumb3
                      {
                        OFFSET 2.798515 0.0 -3e-06
                        CHANNELS 3 Zrotation Yrotation Xrotation
                        JOINT LeftHandThumbEnd
                        {
                          OFFSET 3.180793 -4e-06 4e-06
                          CHANNELS 3 Zrotation Yrotation Xrotation
                        }
                      }
                    }
                  }
                  JOINT LeftHandIndex1
                  {
                    OFFSET 3.247555 -0.531998 2.296169
                    CHANNELS 3 Zrotation Yrotation Xrotation
                    JOINT LeftHandIndex2
                    {
                      OFFSET 6.364578 0.01206 0.1786
                      CHANNELS 3 Zrotation Yrotation Xrotation
                      JOINT LeftHandIndex3
                      {
                        OFFSET 3.662364 0.0 0.0
                        CHANNELS 3 Zrotation Yrotation Xrotation
                        JOINT LeftHandIndex4
                        {
                          OFFSET 2.329242 4e-06 4e-06
                          CHANNELS 3 Zrotation Yrotation Xrotation
                          JOINT LeftHandIndexEnd
                          {
                            OFFSET 2.759615 -0.180537 -0.113024
                            CHANNELS 3 Zrotation Yrotation Xrotation
                          }
                        }
                      }
                    }
                  }
                  JOINT LeftHandMiddle1
                  {
                    OFFSET 3.163495 0.240981 1.000332
                    CHANNELS 3 Zrotation Yrotation Xrotation
                    JOINT LeftHandMiddle2
                    {
                      OFFSET 6.19078 -0.259278 -1.002548
                      CHANNELS 3 Zrotation Yrotation Xrotation
                      JOINT LeftHandMiddle3
                      {
                        OFFSET 4.35652 -4e-06 -1e-06
                        CHANNELS 3 Zrotation Yrotation Xrotation
                        JOINT LeftHandMiddle4
                        {
                          OFFSET 2.996877 -8e-06 0.0
                          CHANNELS 3 Zrotation Yrotation Xrotation
                          JOINT LeftHandMiddleEnd
                          {
                            OFFSET 2.304287 -0.294569 -0.031741
                            CHANNELS 3 Zrotation Yrotation Xrotation
                          }
                        }
                      }
                    }
                  }
                  JOINT LeftHandRing1
                  {
                    OFFSET 2.882643 -0.053652 -0.322543
                    CHANNELS 3 Zrotation Yrotation Xrotation
                    JOINT LeftHandRing2
                    {
                      OFFSET 5.854541 -0.486202 -1.373841
                      CHANNELS 3 Zrotation Yrotation Xrotation
                      JOINT LeftHandRing3
                      {
                        OFFSET 4.350578 0.0 3e-06
                        CHANNELS 3 Zrotation Yrotation Xrotation
                        JOINT LeftHandRing4
                        {
                          OFFSET 2.651321 7e-06 2e-06
                          CHANNELS 3 Zrotation Yrotation Xrotation
                          JOINT LeftHandRingEnd
                          {
                            OFFSET 1.936105 0.077687 -7.1e-05
                            CHANNELS 3 Zrotation Yrotation Xrotation
                          }
                        }
                      }
                    }
                  }
                  JOINT LeftHandPinky1
                  {
                    OFFSET 2.8655 -0.310005 -1.600378
                    CHANNELS 3 Zrotation Yrotation Xrotation
                    JOINT LeftHandPinky2
                    {
                      OFFSET 5.087849 -1.331141 -1.77123
                      CHANNELS 3 Zrotation Yrotation Xrotation
                      JOINT LeftHandPinky3
                      {
                        OFFSET 3.070974 4e-06 0.0
                        CHANNELS 3 Zrotation Yrotation Xrotation
                        JOINT LeftHandPinky4
                        {
                          OFFSET 1.549672 0.0 1e-06
                          CHANNELS 3 Zrotation Yrotation Xrotation
                          JOINT LeftHandPinkyEnd
                          {
                            OFFSET 1.944893 -0.157802 0.057219
                            CHANNELS 3 Zrotation Yrotation Xrotation
                          }
                        }
                      }
                    }
                  }
                }
              }
            }
          }
          JOINT RightShoulder
          {
            OFFSET -1.380118 23.180309 5.214158
            CHANNELS 3 Zrotation Yrotation Xrotation
            JOINT RightArm
            {
              OFFSET -15.037196 1.2e-05 -5.545604
              CHANNELS 3 Zrotation Yrotation Xrotation
              JOINT RightForeArm
              {
                OFFSET -28.736639 2e-06 -0.002597
                CHANNELS 3 Zrotation Yrotation Xrotation
                JOINT RightHand
                {
                  OFFSET -27.133619 -0.0 0.002613
                  CHANNELS 3 Zrotation Yrotation Xrotation
                  JOINT RightHandThumb1
                  {
                    OFFSET -2.274032 -1.383988 3.163127
                    CHANNELS 3 Zrotation Yrotation Xrotation
                    JOINT RightHandThumb2
                    {
                      OFFSET -4.011429 -1.827466 1.640914
                      CHANNELS 3 Zrotation Yrotation Xrotation
                      JOINT RightHandThumb3
                      {
                        OFFSET -2.794935 -4e-06 -3e-06
                        CHANNELS 3 Zrotation Yrotation Xrotation
                        JOINT RightHandThumbEnd
                        {
                          OFFSET -3.183852 4e-06 1e-06
                          CHANNELS 3 Zrotation Yrotation Xrotation
                        }
                      }
                    }
                  }
                  JOINT RightHandIndex1
                  {
                    OFFSET -3.253266 -0.520057 2.282866
                    CHANNELS 3 Zrotation Yrotation Xrotation
                    JOINT RightHandIndex2
                    {
                      OFFSET -6.341917 0.012471 0.178266
                      CHANNELS 3 Zrotation Yrotation Xrotation
                      JOINT RightHandIndex3
                      {
                        OFFSET -3.654871 -8e-06 -0.0
                        CHANNELS 3 Zrotation Yrotation Xrotation
                        JOINT RightHandIndex4
                        {
                          OFFSET -2.327586 0.0 1e-06
                          CHANNELS 3 Zrotation Yrotation Xrotation
                          JOINT RightHandIndexEnd
                          {
                            OFFSET -2.76179 -0.180656 -0.113078
                            CHANNELS 3 Zrotation Yrotation Xrotation
                          }
                        }
                      }
                    }
                  }
                  JOINT RightHandMiddle1
                  {
                    OFFSET -3.168106 0.246593 1.00103
                    CHANNELS 3 Zrotation Yrotation Xrotation
                    JOINT RightHandMiddle2
                    {
                      OFFSET -6.180828 -0.258836 -1.000895
                      CHANNELS 3 Zrotation Yrotation Xrotation
                      JOINT RightHandMiddle3
                      {
                        OFFSET -4.348901 0.0 -0.0
                        CHANNELS 3 Zrotation Yrotation Xrotation
                        JOINT RightHandMiddle4
                        {
                          OFFSET -3.00024 -4e-06 -2e-06
                          CHANNELS 3 Zrotation Yrotation Xrotation
                          JOINT RightHandMiddleEnd
                          {
                            OFFSET -2.30252 -0.29437 -0.031706
                            CHANNELS 3 Zrotation Yrotation Xrotation
                          }
                        }
                      }
                    }
                  }
                  JOINT RightHandRing1
                  {
                    OFFSET -2.88569 -0.067952 -0.308858
                    CHANNELS 3 Zrotation Yrotation Xrotation
                    JOINT RightHandRing2
                    {
                      OFFSET -5.854198 -0.48613 -1.373731
                      CHANNELS 3 Zrotation Yrotation Xrotation
                      JOINT RightHandRing3
                      {
                        OFFSET -4.33881 -4e-06 -0.0
                        CHANNELS 3 Zrotation Yrotation Xrotation
                        JOINT RightHandRing4
                        {
                          OFFSET -2.654903 -4e-06 4e-06
                          CHANNELS 3 Zrotation Yrotation Xrotation
                          JOINT RightHandRingEnd
                          {
                            OFFSET -1.933568 0.077527 -5.2e-05
                            CHANNELS 3 Zrotation Yrotation Xrotation
                          }
                        }
                      }
                    }
                  }
                  JOINT RightHandPinky1
                  {
                    OFFSET -2.866425 -0.342796 -1.584145
                    CHANNELS 3 Zrotation Yrotation Xrotation
                    JOINT RightHandPinky2
                    {
                      OFFSET -5.091371 -1.332055 -1.772385
                      CHANNELS 3 Zrotation Yrotation Xrotation
                      JOINT RightHandPinky3
                      {
                        OFFSET -3.062664 -4e-06 1e-06
                        CHANNELS 3 Zrotation Yrotation Xrotation
                        JOINT RightHandPinky4
                        {
                          OFFSET -1.546529 4e-06 -2e-06
                          CHANNELS 3 Zrotation Yrotation Xrotation
                          JOINT RightHandPinkyEnd
                          {
                            OFFSET -1.945119 -0.157718 0.057211
                            CHANNELS 3 Zrotation Yrotation Xrotation
                          }
                        }
                      }
                    }
                  }
                }
              }
            }
          }
        }
      }
    }
    JOINT LeftLeg
    {
      OFFSET 10.043214 -8.434526 2.595655
      CHANNELS 3 Zrotation Yrotation Xrotation
      JOINT LeftShin
      {
        OFFSET -1e-06 -43.221752 -0.802913
        CHANNELS 3 Zrotation Yrotation Xrotation
        JOINT LeftFoot
        {
          OFFSET 1e-06 -42.155094 -3.481523
          CHANNELS 3 Zrotation Yrotation Xrotation
          JOINT LeftToeBase
          {
            OFFSET 0.0 -5.059472 13.231529
            CHANNELS 3 Zrotation Yrotation Xrotation
            JOINT LeftToeEnd
            {
              OFFSET -0.009607 -1.647619 6.513017
              CHANNELS 3 Zrotation Yrotation Xrotation
            }
          }
        }
      }
    }
    JOINT RightLeg
    {
      OFFSET -10.047278 -8.29526 2.620317
      CHANNELS 3 Zrotation Yrotation Xrotation
      JOINT RightShin
      {
        OFFSET 1e-06 -43.362206 -0.805556
        CHANNELS 3 Zrotation Yrotation Xrotation
        JOINT RightFoot
        {
          OFFSET 2e-06 -42.117393 -3.478398
          CHANNELS 3 Zrotation Yrotation Xrotation
          JOINT RightToeBase
          {
            OFFSET -0.0 -5.079609 13.284196
            CHANNELS 3 Zrotation Yrotation Xrotation
            JOINT RightToeEnd
            {
              OFFSET 0.009532 -1.634378 6.460591
              CHANNELS 3 Zrotation Yrotation Xrotation
            }
          }
        }
      }
    }
  }
}
MOTION
Frames: 4
Frame Time: 0.03333333333333333
0.0 0.0 0.0 0.0 -0.0 0.0 155.862152 20.378149 62.823341 -3.753929 -12.558222 82.982552 1.86517 0.175273 -3.760038 0.423096 -0.526934 -5.168759 -0.357349 -3.582095 14.590595 -1.423909 1.497331 -26.135025 2.643722 4.324948 -2.955144 -1.221502 5.337004 12.890297 7.7e-05 -2.3e-05 6e-06 0.043474 -0.049683 -0.216745 1.086945 -3.765987 -10.956522 -0.984101 3.67297 -11.131962 -4.270749 -18.538502 13.797561 -72.935562 -52.181019 -3.347153 -172.675262 -44.763203 175.711563 30.750799 -9.269376 -7.861113 -5.882107 9.861285 0.702588 -10.936873 -0.360575 7.156207 2e-06 8.774825 -0.0 -15.99698 16.425312 5.198037 -1.844033 2.498504 -2.507279 -10.163602 4.678946 4.621108 -20.976027 -4e-06 3e-06 -21.226288 2.451697 -3.593999 -1e-06 -6e-06 -1e-06 -1.362682 2.240798 -0.746323 -21.334917 0.58491 3.008323 -13.821217 -4e-06 1e-06 -23.887173 -0.24908 -0.839482 -55.977623 2.487241 -1.417722 -0.294025 1.679687 0.833257 -14.21821 0.093214 1.300579 -34.212051 -0.287565 0.96717 -20.033216 0.964536 1.212844 -0.0 0.0 -0.0 -3.440389 0.788233 0.501654 -15.928189 -3.16731 2.999707 -6.338828 -1e-06 1e-06 -18.123447 3.648183 -4.905672 -5e-06 1e-06 -2e-06 0.179463 9.506775 16.417658 -42.546581 35.660896 -72.015076 173.997925 68.971306 174.617096 -20.117937 -10.974375 46.071682 2.243542 -5.255038 -3.18016 14.282889 -0.826591 6.952501 -5e-06 -12.690609 -1e-06 17.271706 -17.629173 2.38215 1.665667 -1.95592 -2.8783 4.727798 -4.170589 4.993923 11.020527 5e-06 -4e-06 12.109052 -3.735715 -2.866787 3e-06 1e-06 -0.0 1.291986 -1.92855 -1.49809 14.800129 0.567471 3.865606 14.242572 -1.341734 -6.660662 19.631969 0.143929 -0.648245 51.364674 -1.010592 -6.910312 0.353029 -1.51115 -0.03194 20.222788 3.684312 2.316628 18.78727 1e-05 -2e-06 10.751627 -0.479866 1.397903 -1e-06 -0.0 -1e-06 3.273807 0.305948 -0.580112 21.486818 11.830384 2.266131 8.162926 3e-06 -2e-06 18.39908 -3.798983 -4.940577 4e-06 -1e-06 -2e-06 -23.36989 79.299042 -42.644737 -9.316045 -53.779434 50.153763 -23.977348 -33.625031 -13.77207 2.165212 -1.505293 -9.332385 0.0 -0.0 3e-06 -16.00943 -65.345993 -33.337719 8.177773 22.43667 58.950638 29.51165 32.272316 -7.908433 -1.491047 0.640277 -8.195226 -1e-06 -0.0 -2e-06 
0.0 0.0 0.0 0.0 -0.0 0.0 157.356476 20.483387 62.805008 -1.093037 -13.363059 82.037987 1.056901 0.274342 -3.266821 0.20322 -0.816435 -4.972269 -1.334191 -4.079536 14.828176 0.089455 1.893114 -26.639364 1.7474 3.63484 -3.065841 -1.668303 4.282748 12.675639 7.6e-05 -2.3e-05 5e-06 0.063425 -0.053375 -0.216524 1.144909 -3.785375 -11.081689 -1.002475 3.684162 -11.236528 -2.968039 -20.691483 13.526975 -76.606422 -54.700882 3.14404 -171.70874 -48.055355 175.109955 30.568939 -10.097056 -19.761335 -5.88211 9.861293 0.70259 -10.936881 -0.360576 7.156208 1e-06 8.774831 -1e-06 -15.691565 16.556913 5.05632 -1.844034 2.498507 -2.507279 -10.163607 4.678947 4.62111 -20.97604 -4e-06 3e-06 -21.226301 2.451696 -3.594003 -2e-06 -5e-06 0.0 -1.362682 2.2408 -0.746324 -21.334932 0.58491 3.008324 -13.821224 -4e-06 1e-06 -23.887188 -0.249081 -0.839484 -55.255882 2.499162 -1.48898 -0.294025 1.679689 0.833258 -14.218221 0.093214 1.30058 -34.212078 -0.287566 0.967171 -20.033232 0.964535 1.212844 -0.0 -1e-06 -0.0 -3.440391 0.788234 0.501656 -15.928201 -3.167314 2.999708 -6.338832 -1e-06 -0.0 -18.123461 3.648186 -4.905674 -6e-06 1e-06 -0.0 0.169261 9.240223 15.736015 -41.569431 34.446579 -72.132118 174.359665 68.213448 174.999496 -19.355722 -12.894845 47.972969 2.243544 -5.25504 -3.18016 14.282896 -0.826595 6.952503 -1e-06 -12.69061 0.0 17.095606 -17.657642 2.440121 1.665667 -1.955922 -2.878301 4.727801 -4.170591 4.993926 11.020534 3e-06 -2e-06 12.109059 -3.735719 -2.866787 1e-06 1e-06 0.0 1.291987 -1.928551 -1.49809 14.800136 0.567467 3.865608 14.242581 -1.341735 -6.660666 19.631975 0.143931 -0.648248 51.461964 -1.075357 -6.817747 0.353029 -1.511153 -0.03194 20.222803 3.68431 2.316628 18.787285 5e-06 -4e-06 10.751634 -0.479869 1.397907 -1e-06 0.0 -0.0 3.273808 0.305947 -0.580112 21.486824 11.830379 2.266131 8.16293 1e-06 -2e-06 18.399094 -3.798986 -4.94058 4e-06 -0.0 -2e-06 -11.534437 71.047539 -35.32444 -9.499948 -43.902237 55.075035 -24.159172 -39.041805 -14.571013 2.107382 -1.417559 -10.925169 -0.0 0.0 4e-06 -15.922461 -67.574303 -32.124111 8.012841 23.516939 58.361038 28.83 32.513828 -9.292656 -1.424719 0.648876 -8.745641 -1e-06 0.0 -2e-06 
0.0 0.0 0.0 0.0 -0.0 0.0 158.870865 20.101856 62.695057 1.623048 -14.030891 80.99157 0.285435 0.388928 -2.968652 0.037822 -1.057025 -4.799034 -2.183649 -4.515116 14.858854 1.046211 2.323117 -26.556093 0.715541 2.714853 -3.190804 -2.060805 2.96472 12.559463 7.7e-05 -2.3e-05 6e-06 0.049936 -0.044736 -0.222023 1.164632 -3.79224 -11.187678 -1.050241 3.706689 -11.32393 -1.267151 -21.777454 12.999622 -81.183807 -57.219036 11.275851 -170.994827 -52.33802 174.426956 29.360268 -10.934691 -28.348293 -5.882113 9.861292 0.702591 -10.936882 -0.360573 7.156209 -1e-06 8.77483 -1e-06 -15.614417 16.887686 4.921678 -1.844034 2.498506 -2.507279 -10.16361 4.67895 4.62111 -20.976044 2e-06 3e-06 -21.226307 2.451703 -3.594004 -1e-06 -5e-06 -1e-06 -1.362683 2.2408 -0.746324 -21.33493 0.584912 3.008325 -13.821224 -1e-06 1e-06 -23.887188 -0.249074 -0.839484 -55.721382 2.635779 -1.556321 -0.294025 1.679688 0.833256 -14.218222 0.093217 1.300581 -34.212082 -0.28756 0.967167 -20.033232 0.964539 1.212841 -1e-06 -2e-06 -0.0 -3.440392 0.788234 0.501655 -15.928201 -3.167308 2.99971 -6.33883 -0.0 -0.0 -18.123459 3.648187 -4.905674 -6e-06 0.0 -2e-06 0.048713 9.047796 15.121436 -39.127464 33.277954 -72.413223 174.638275 67.323189 175.200958 -18.883018 -14.135014 49.275028 2.243544 -5.255039 -3.180161 14.282898 -0.826594 6.952505 -4e-06 -12.690613 -0.0 17.058355 -17.548195 2.367948 1.665668 -1.955924 -2.878302 4.7278 -4.170588 4.993926 11.020532 5e-06 -4e-06 12.109058 -3.735717 -2.866788 1e-06 1e-06 1e-06 1.291987 -1.928552 -1.498091 14.800136 0.567469 3.865608 14.242579 -1.341734 -6.660664 19.631975 0.14393 -0.648247 51.489204 -1.039049 -6.667822 0.353029 -1.511151 -0.03194 20.222803 3.684316 2.316629 18.787287 8e-06 -4e-06 10.751634 -0.479866 1.397908 -1e-06 1e-06 -0.0 3.273809 0.305946 -0.580112 21.486826 11.830386 2.266131 8.16293 1e-06 -2e-06 18.399092 -3.798983 -4.94058 3e-06 -0.0 -1e-06 -6.898148 65.023109 -35.652893 -10.417592 -35.502792 62.679314 -22.505934 -44.168877 -17.092377 2.040092 -1.320768 -13.42119 -0.0 0.0 3e-06 -17.647823 -70.586205 -29.734163 8.036312 24.767654 57.030575 28.700808 31.587351 -10.56224 -1.44672 0.633207 -9.33241 -1e-06 -1e-06 -1e-06 
0.0 0.0 0.0 0.0 -0.0 0.0 160.724228 19.276546 62.737541 4.149159 -14.343616 80.368141 -0.354463 0.532415 -3.02681 -0.020224 -1.235249 -4.763756 -2.60317 -4.739369 14.42331 1.206011 2.574605 -25.730593 -0.255019 1.569672 -3.279953 -2.466723 1.462298 12.394879 7.7e-05 -2.3e-05 6e-06 0.010262 -0.026291 -0.226729 1.168211 -3.786689 -11.261338 -1.134566 3.736863 -11.380454 0.790484 -21.185457 12.275286 -86.82431 -59.366264 21.21089 -170.926178 -57.073326 174.10524 26.798979 -10.861515 -30.410362 -5.882106 9.861284 0.702591 -10.936872 -0.360575 7.156205 1e-06 8.774824 0.0 -15.474692 17.125771 5.206707 -1.844032 2.498504 -2.507277 -10.163601 4.678944 4.621109 -20.976027 -2e-06 3e-06 -21.226286 2.451696 -3.594 0.0 -4e-06 -1e-06 -1.362682 2.240798 -0.746324 -21.334913 0.58491 3.008323 -13.821213 -2e-06 2e-06 -23.887167 -0.249079 -0.839483 -57.15633 2.764742 -1.449057 -0.294025 1.679687 0.833256 -14.218208 0.093215 1.30058 -34.212051 -0.287564 0.967172 -20.033215 0.964537 1.212843 -1e-06 -1e-06 -0.0 -3.440389 0.788234 0.501656 -15.928185 -3.167308 2.999707 -6.338828 -1e-06 1e-06 -18.123446 3.648183 -4.905671 -5e-06 0.0 -2e-06 -0.242564 8.725976 14.753137 -35.578796 32.014763 -72.454964 175.262405 66.439796 175.712372 -18.807545 -14.60573 49.358528 2.243541 -5.255034 -3.180156 14.282885 -0.826597 6.952501 -2e-06 -12.690598 2e-06 17.292452 -17.428467 2.241266 1.665666 -1.95592 -2.878298 4.727797 -4.170587 4.993923 11.02052 3e-06 -1e-06 12.109048 -3.735714 -2.866782 2e-06 -1e-06 -1e-06 1.291985 -1.928551 -1.498089 14.800122 0.567468 3.865607 14.242569 -1.341735 -6.660656 19.631964 0.143925 -0.648245 51.717758 -0.946219 -6.468678 0.353029 -1.511151 -0.03194 20.222784 3.684306 2.316629 18.787266 3e-06 -0.0 10.751624 -0.479868 1.397907 -0.0 -1e-06 -1e-06 3.273805 0.305945 -0.58011 21.486803 11.830369 2.266132 8.162923 1e-06 -1e-06 18.399076 -3.798985 -4.940572 3e-06 -0.0 -1e-06 -4.581178 61.506401 -38.081066 -11.56631 -29.015242 70.925842 -19.838568 -48.325645 -20.124874 1.956103 -1.256947 -15.593259 0.0 -0.0 3e-06 -22.580742 -74.620193 -24.457672 8.350912 26.631443 54.714046 29.592403 30.722874 -10.81922 -1.546562 0.618964 -9.182032 -1e-06 -0.0 -1e-06 
